<svg width="12" height="12" viewBox="0 0 12 12"  xmlns="http://www.w3.org/2000/svg">
<path d="M2.53168 0.741699C1.4187 0.741699 0.522522 1.63787 0.522522 2.75086V9.73596C0.522522 10.8489 1.4187 11.7451 2.53168 11.7451H6.31756V7.44347H5.18008V5.89474H6.31756V4.57158C6.31756 3.53203 6.98963 2.57755 8.53784 2.57755C9.16468 2.57755 9.62821 2.63773 9.62821 2.63773L9.59176 4.084C9.59176 4.084 9.11902 4.07953 8.60317 4.07953C8.04486 4.07953 7.95534 4.33677 7.95534 4.76381V5.89475H9.63611L9.56287 7.44348H7.95534V11.7451H9.51679C10.6298 11.7451 11.526 10.849 11.526 9.73597V2.75087C11.526 1.63788 10.6298 0.74171 9.51679 0.74171H2.53167L2.53168 0.741699Z" />
</svg>
