<svg width="11" height="9" viewBox="0 0 11 9"  xmlns="http://www.w3.org/2000/svg">
<path d="M9.48026 0.190918C10.3197 0.190918 11 0.871181 11 1.71065V7.35539C11 8.19487 10.3197 8.87513 9.48026 8.87513H1.51974C1.11668 8.87513 0.730127 8.71501 0.445121 8.43001C0.160115 8.145 0 7.75845 0 7.35539V1.71065C0 0.871181 0.680263 0.190918 1.51974 0.190918H9.48026ZM10.2763 2.89779L5.67426 5.42894C5.62691 5.45498 5.57433 5.47008 5.52038 5.47313C5.46644 5.47619 5.41249 5.46712 5.3625 5.4466L5.32574 5.42923L0.723684 2.8975V7.35539C0.723684 7.56652 0.807554 7.769 0.956843 7.91829C1.10613 8.06757 1.30861 8.15144 1.51974 8.15144H9.48026C9.69139 8.15144 9.89387 8.06757 10.0432 7.91829C10.1924 7.769 10.2763 7.56652 10.2763 7.35539V2.89779ZM9.48026 0.914602H1.51974C1.30861 0.914602 1.10613 0.998472 0.956843 1.14776C0.807554 1.29705 0.723684 1.49953 0.723684 1.71065V2.07221L5.5 4.69889L10.2763 2.07192V1.71065C10.2763 1.49953 10.1924 1.29705 10.0432 1.14776C9.89387 0.998472 9.69139 0.914602 9.48026 0.914602Z" />
</svg>
