<svg width="15" height="16" viewBox="0 0 15 16" fill="none" xmlns="http://www.w3.org/2000/svg">
<path d="M6.65323 15.9677V12.2552C6.20968 12.878 5.32258 13.6444 3.575 14.2193C3.575 14.2193 4.01855 12.854 5.26935 11.9359C4.11613 12.1594 2.37742 12.1275 0 11.1774C0 11.1774 2.19113 10.0517 4.68387 10.3551C3.27339 9.58065 1.50806 8.04774 0.150807 4.87814C0.150807 4.87814 4.14274 5.86016 6.12984 8.89403C4.32903 4.98194 7.09677 0 7.09677 0C9.25242 4.36718 8.79113 7.26532 8.09032 8.8621C10.0863 5.85218 14.0427 4.87814 14.0427 4.87814C12.6855 8.04774 10.9202 9.58065 9.50968 10.3551C12.0024 10.0517 14.1935 11.1774 14.1935 11.1774C11.8161 12.1275 10.0774 12.1594 8.92419 11.9359C10.175 12.854 10.6185 14.2193 10.6185 14.2193C8.87097 13.6444 7.98387 12.878 7.54032 12.2552V15.9677H6.65323Z" fill="#FFB800"/>
</svg>
