<svg width="19" height="17" viewBox="0 0 19 17"  xmlns="http://www.w3.org/2000/svg">
<path d="M6.35891 16.9571C7.13934 16.9571 7.772 16.3244 7.772 15.544C7.772 14.7636 7.13934 14.1309 6.35891 14.1309C5.57848 14.1309 4.94582 14.7636 4.94582 15.544C4.94582 16.3244 5.57848 16.9571 6.35891 16.9571Z" />
<path d="M16.2506 16.9571C17.031 16.9571 17.6636 16.3244 17.6636 15.544C17.6636 14.7636 17.031 14.1309 16.2506 14.1309C15.4701 14.1309 14.8375 14.7636 14.8375 15.544C14.8375 16.3244 15.4701 16.9571 16.2506 16.9571Z" />
<path d="M18.7588 2.50736C18.6595 2.38594 18.5345 2.28815 18.3927 2.22109C18.251 2.15402 18.096 2.11937 17.9392 2.11964H4.49937L4.22868 0.583784C4.19981 0.420187 4.11423 0.271992 3.98695 0.165229C3.85968 0.0584668 3.69885 -3.4904e-05 3.53273 1.56236e-08H0.706546C0.519158 1.56236e-08 0.339446 0.0744396 0.206943 0.206943C0.0744394 0.339446 0 0.519158 0 0.706546C0 0.893934 0.0744394 1.07365 0.206943 1.20615C0.339446 1.33865 0.519158 1.41309 0.706546 1.41309H2.94011L4.95642 12.8406C4.98528 13.0042 5.07087 13.1524 5.19815 13.2591C5.32542 13.3659 5.48624 13.4244 5.65237 13.4244H16.9571C17.1445 13.4244 17.3242 13.3499 17.4567 13.2174C17.5892 13.0849 17.6637 12.9052 17.6637 12.7178C17.6637 12.5304 17.5892 12.3507 17.4567 12.2182C17.3242 12.0857 17.1445 12.0113 16.9571 12.0113H6.24498L5.99593 10.5982H16.6674C16.9124 10.5979 17.1498 10.5129 17.3394 10.3577C17.529 10.2025 17.6592 9.98651 17.7078 9.74636L18.9796 3.38745C19.0102 3.23355 19.0063 3.07478 18.9681 2.92258C18.93 2.77038 18.8585 2.62856 18.7588 2.50736V2.50736Z" />
</svg>
