<svg width="17" height="14" viewBox="0 0 17 14"  xmlns="http://www.w3.org/2000/svg">
<path d="M12.2624 0C10.6428 0 9.25882 1.08813 8.49845 1.83831C7.73809 1.08813 6.35723 0 4.73836 0C1.94805 0 0 1.83321 0 4.45739C0 7.34887 2.41941 9.21777 4.76 11.0255C5.865 11.8798 7.00864 12.7626 7.88568 13.7414C8.03327 13.9053 8.24964 14 8.47682 14H8.52164C8.74959 14 8.96518 13.9046 9.112 13.7414C9.99059 12.7626 11.1335 11.8791 12.2392 11.0255C14.579 9.2185 17 7.3496 17 4.45739C17 1.83321 15.052 0 12.2624 0Z" />
</svg>
