<svg width="17" height="19" viewBox="0 0 17 19" fill="none" xmlns="http://www.w3.org/2000/svg">
<path d="M0.772738 19C0.567795 19 0.371246 18.9166 0.22633 18.7681C0.0814134 18.6197 0 18.4183 0 18.2083V0.791537C2.29897e-05 0.653967 0.0350365 0.518779 0.101589 0.399295C0.168142 0.279811 0.263938 0.180158 0.379533 0.110156C0.495128 0.0401541 0.626533 0.00222052 0.760796 9.45593e-05C0.89506 -0.0020314 1.02755 0.0317236 1.1452 0.0980321L16.6 8.80643C16.7211 8.87477 16.8221 8.97517 16.8925 9.09716C16.9629 9.21914 17 9.35824 17 9.49993C17 9.64163 16.9629 9.78073 16.8925 9.90271C16.8221 10.0247 16.7211 10.1251 16.6 10.1934L1.1452 18.9018C1.0311 18.9662 0.902983 19 0.772738 19Z" fill="white"/>
</svg>
