<svg width="12" height="12" viewBox="0 0 12 12"  xmlns="http://www.w3.org/2000/svg">
<path d="M5.56881 0.629883C4.05495 0.629883 3.86628 0.637193 3.27382 0.662256C2.67893 0.691495 2.27654 0.78374 1.92148 0.921586C1.54988 1.06187 1.21334 1.28152 0.935329 1.56521C0.650846 1.84257 0.431079 2.1793 0.291703 2.55136C0.153858 2.90642 0.0616127 3.30881 0.0323728 3.90371C0.00556951 4.49651 0 4.68483 0 6.19869C0 7.71255 0.00730998 7.90122 0.0323728 8.49368C0.0616127 9.08683 0.153858 9.49097 0.291703 9.84602C0.431992 10.2176 0.651638 10.5542 0.935329 10.8322C1.21269 11.1167 1.54941 11.3364 1.92148 11.4758C2.27654 11.6119 2.68067 11.7059 3.27382 11.7351C3.86663 11.7619 4.05495 11.7675 5.56881 11.7675C7.08267 11.7675 7.27134 11.7602 7.86379 11.7351C8.45695 11.7059 8.86108 11.6116 9.21614 11.4758C9.58774 11.3355 9.92428 11.1159 10.2023 10.8322C10.4871 10.5551 10.707 10.2183 10.8459 9.84602C10.982 9.49097 11.076 9.08683 11.1052 8.49368C11.132 7.90087 11.1376 7.71255 11.1376 6.19869C11.1376 4.68483 11.1303 4.49616 11.1052 3.90371C11.076 3.31056 10.9817 2.90433 10.8459 2.55136C10.7056 2.17976 10.486 1.84322 10.2023 1.56521C9.92523 1.28036 9.58842 1.06054 9.21614 0.921586C8.86108 0.78374 8.45695 0.691495 7.86379 0.662256C7.27099 0.635452 7.08267 0.629883 5.56881 0.629883ZM5.56881 1.63239C7.05552 1.63239 7.23305 1.6397 7.82063 1.66477C8.36261 1.69018 8.6578 1.78068 8.85377 1.85726C9.09606 1.9467 9.31534 2.08904 9.49566 2.27393C9.68023 2.45349 9.82205 2.67227 9.91059 2.91408C9.98717 3.11005 10.0777 3.40524 10.1031 3.94722C10.1281 4.5348 10.1355 4.71268 10.1355 6.19904C10.1355 7.6854 10.1281 7.86328 10.101 8.45086C10.0718 8.99284 9.98125 9.28803 9.90502 9.484C9.79955 9.74542 9.68189 9.92817 9.48765 10.1259C9.30673 10.3096 9.08758 10.4513 8.84577 10.5408C8.65223 10.6174 8.35287 10.7079 7.80879 10.7333C7.21808 10.7584 7.04403 10.7657 5.55349 10.7657C4.06295 10.7657 3.88926 10.7584 3.29784 10.7312C2.75586 10.702 2.45685 10.6115 2.26087 10.5352C1.99632 10.4298 1.81496 10.3121 1.62073 10.1179C1.42475 9.92191 1.30013 9.73533 1.20406 9.476C1.12608 9.28246 1.03697 8.9831 1.00808 8.43903C0.988239 7.85527 0.978841 7.67426 0.978841 6.19069C0.978841 4.70781 0.988239 4.52645 1.00808 3.93538C1.03697 3.39131 1.12608 3.09265 1.20406 2.89841C1.30013 2.63351 1.4251 2.4525 1.62073 2.25653C1.81461 2.06264 1.99632 1.93732 2.26087 1.83916C2.45685 1.76293 2.74855 1.67242 3.29262 1.64527C3.88334 1.62404 4.05738 1.61638 5.54584 1.61638L5.56881 1.63239ZM5.56881 3.34049C5.19334 3.34035 4.82151 3.41421 4.4746 3.55783C4.12768 3.70146 3.81246 3.91204 3.54696 4.17754C3.28146 4.44304 3.07088 4.75825 2.92725 5.10517C2.78363 5.45209 2.70978 5.82391 2.70991 6.19939C2.70978 6.57486 2.78363 6.94668 2.92725 7.2936C3.07088 7.64052 3.28146 7.95574 3.54696 8.22124C3.81246 8.48674 4.12768 8.69732 4.4746 8.84094C4.82151 8.98457 5.19334 9.05842 5.56881 9.05828C5.94428 9.05842 6.3161 8.98457 6.66302 8.84094C7.00994 8.69732 7.32516 8.48674 7.59066 8.22124C7.85616 7.95574 8.06674 7.64052 8.21037 7.2936C8.35399 6.94668 8.42784 6.57486 8.42771 6.19939C8.42784 5.82391 8.35399 5.45209 8.21037 5.10517C8.06674 4.75825 7.85616 4.44304 7.59066 4.17754C7.32516 3.91204 7.00994 3.70146 6.66302 3.55783C6.3161 3.41421 5.94428 3.34035 5.56881 3.34049ZM5.56881 8.05577C4.54263 8.05577 3.71242 7.22557 3.71242 6.19939C3.71242 5.17321 4.54263 4.343 5.56881 4.343C6.59499 4.343 7.4252 5.17321 7.4252 6.19939C7.4252 7.22557 6.59499 8.05577 5.56881 8.05577ZM9.21127 3.22632C9.21108 3.40373 9.14048 3.57381 9.01496 3.69919C8.88945 3.82458 8.71929 3.89501 8.54188 3.89501C8.45416 3.89501 8.3673 3.87773 8.28625 3.84416C8.20521 3.81059 8.13157 3.76138 8.06954 3.69935C8.00751 3.63733 7.95831 3.56369 7.92474 3.48264C7.89117 3.4016 7.87389 3.31473 7.87389 3.22701C7.87389 3.13929 7.89117 3.05243 7.92474 2.97138C7.95831 2.89034 8.00751 2.8167 8.06954 2.75467C8.13157 2.69264 8.20521 2.64344 8.28625 2.60987C8.3673 2.5763 8.45416 2.55902 8.54188 2.55902C8.90982 2.55902 9.21127 2.85838 9.21127 3.22632Z" />
</svg>
