<svg width="13" height="13" viewBox="0 0 13 13"  xmlns="http://www.w3.org/2000/svg">
<path d="M3.08315 12.7358L3.0539 4.81339L0.425463 4.82309L0.454708 12.7455L3.08315 12.7358ZM1.73603 3.73591C2.65261 3.73253 3.22089 3.12207 3.21809 2.36184C3.19814 1.58452 2.64254 0.995098 1.74332 0.998417C0.844233 1.00174 0.25847 1.59538 0.261339 2.37275C0.264146 3.13302 0.83678 3.73923 1.71887 3.73598L1.73595 3.73591L1.73603 3.73591ZM4.53798 12.7305L7.16642 12.7208L7.15009 8.29648C7.14921 8.05969 7.16542 7.8231 7.2342 7.65358C7.42247 7.17979 7.85315 6.68822 8.57923 6.68554C9.53036 6.68203 9.91354 7.40714 9.91747 8.47215L9.93312 12.7105L12.5614 12.7008L12.5446 8.15813C12.5356 5.72467 11.2347 4.59719 9.50537 4.60357C8.08744 4.60881 7.4678 5.40514 7.12393 5.94722L7.14147 5.94716L7.13723 4.79815L4.50879 4.80785C4.54603 5.55112 4.53804 12.7303 4.53804 12.7303L4.53798 12.7305Z" />
</svg>
