<svg width="52" height="55" viewBox="0 0 52 55" fill="none" xmlns="http://www.w3.org/2000/svg">
<path d="M52 2.75001V8.25001C52 13.3554 49.9816 18.2517 46.3888 21.8618C42.796 25.4719 37.9231 27.5 32.8421 27.5H30.1053V30.25H43.7895V49.5C43.7895 50.9587 43.2128 52.3576 42.1863 53.3891C41.1598 54.4205 39.7675 55 38.3158 55H16.4211C14.9693 55 13.5771 54.4205 12.5506 53.3891C11.5241 52.3576 10.9474 50.9587 10.9474 49.5V30.25H24.6316V22C24.6316 16.8946 26.65 11.9983 30.2428 8.3882C33.8356 4.77813 38.7085 2.75001 43.7895 2.75001H52ZM9.57895 6.76295e-06C12.8631 -0.00266709 16.0998 0.787562 19.0166 2.30416C21.9333 3.82076 24.4447 6.01933 26.3394 8.71476C23.4475 12.5333 21.8857 17.2016 21.8947 22V24.75H20.5263C15.0824 24.75 9.86145 22.577 6.01202 18.7091C2.16259 14.8411 0 9.5951 0 4.12501V6.76295e-06H9.57895Z" fill="black"/>
</svg>
