<svg width="70" height="49" viewBox="0 0 70 49" fill="none" xmlns="http://www.w3.org/2000/svg">
<path d="M60 18.725V0H42.3529V7H52.9412V16.275L40.6588 31.5H28.2353V14H0V38.5H7.05882C7.05882 44.31 11.7882 49 17.6471 49C23.5059 49 28.2353 44.31 28.2353 38.5H44.0471L60 18.725ZM17.6471 42C15.7059 42 14.1176 40.425 14.1176 38.5H21.1765C21.1765 40.425 19.5882 42 17.6471 42Z" fill="black"/>
<path d="M11 4H28.3529V10.9231H11V4ZM59.5882 28.2308C53.8271 28.2308 49.1765 32.8692 49.1765 38.6154C49.1765 44.3615 53.8271 49 59.5882 49C65.3494 49 70 44.3615 70 38.6154C70 32.8692 65.3494 28.2308 59.5882 28.2308ZM59.5882 42.0769C57.6794 42.0769 56.1176 40.5192 56.1176 38.6154C56.1176 36.7115 57.6794 35.1538 59.5882 35.1538C61.4971 35.1538 63.0588 36.7115 63.0588 38.6154C63.0588 40.5192 61.4971 42.0769 59.5882 42.0769Z" fill="black"/>
</svg>
