<svg width="46" height="65" viewBox="0 0 46 65" fill="none" xmlns="http://www.w3.org/2000/svg">
<path d="M46 22.7554C46.0015 18.8394 44.9807 14.9893 43.0364 11.5778C41.0922 8.16633 38.2903 5.30905 34.9021 3.28255C31.5139 1.25606 27.6541 0.128982 23.6963 0.0104281C19.7385 -0.108125 15.8168 0.785859 12.3108 2.60584C8.80478 4.42583 5.83324 7.11017 3.6838 10.399C1.53436 13.6879 0.27983 17.4698 0.0416526 21.3788C-0.196525 25.2878 0.589715 29.1913 2.32427 32.7117C4.05882 36.232 6.68292 39.2498 9.94257 41.473L3.63181e-06 58.5008L7.41257 58.8031L11.3817 65L22.77 45.4895C22.8489 45.4895 22.9211 45.5025 23 45.5025C23.0789 45.5025 23.1511 45.4928 23.23 45.4895L34.6183 65L38.6663 58.9363L46 58.5008L36.0574 41.473C39.125 39.3842 41.6329 36.5889 43.365 33.3281C45.0971 30.0673 46.0014 26.4388 46 22.7554ZM6.57143 22.7554C6.57143 19.5419 7.53495 16.4006 9.34014 13.7286C11.1453 11.0566 13.7111 8.97411 16.7131 7.74434C19.715 6.51458 23.0182 6.19281 26.2051 6.81974C29.3919 7.44667 32.3192 8.99414 34.6168 11.2664C36.9143 13.5388 38.479 16.4339 39.1129 19.5856C39.7468 22.7374 39.4215 26.0043 38.178 28.9732C36.9346 31.9422 34.8289 34.4797 32.1272 36.2651C29.4256 38.0504 26.2493 39.0033 23 39.0033C18.6429 39.0033 14.4642 37.2915 11.3832 34.2444C8.30229 31.1974 6.57143 27.0647 6.57143 22.7554Z" fill="black"/>
</svg>
