<svg width="15" height="12" viewBox="0 0 15 12"  xmlns="http://www.w3.org/2000/svg">
<path d="M14.3967 2.10633C13.9008 2.32555 13.368 2.47367 12.808 2.54062C13.3859 2.19567 13.8182 1.65277 14.0243 1.0132C13.4814 1.33491 12.8872 1.56136 12.2675 1.68271C11.8508 1.23886 11.2988 0.944668 10.6973 0.845811C10.0958 0.746955 9.47841 0.848962 8.94098 1.136C8.40356 1.42303 7.97616 1.87903 7.72515 2.43321C7.47414 2.98738 7.41356 3.60872 7.55281 4.20075C6.45266 4.14565 5.37641 3.8604 4.39392 3.36352C3.41143 2.86664 2.54465 2.16923 1.84984 1.31655C1.61227 1.72537 1.47566 2.19935 1.47566 2.70415C1.4754 3.15858 1.58758 3.60605 1.80225 4.00685C2.01693 4.40766 2.32746 4.74941 2.7063 5.00179C2.26695 4.98784 1.83729 4.86942 1.45309 4.65637V4.69192C1.45305 5.32928 1.67405 5.94702 2.07861 6.44033C2.48317 6.93364 3.04637 7.27214 3.67263 7.39838C3.26506 7.50841 2.83776 7.52462 2.42299 7.44577C2.59968 7.99418 2.94387 8.47375 3.40736 8.81732C3.87085 9.1609 4.43044 9.3513 5.0078 9.36186C4.0277 10.1294 2.8173 10.5457 1.57128 10.5439C1.35057 10.5439 1.13004 10.5311 0.910828 10.5053C2.1756 11.3166 3.64789 11.7471 5.15153 11.7454C10.2416 11.7454 13.0242 7.53998 13.0242 3.89266C13.0242 3.77417 13.0212 3.65449 13.0158 3.53599C13.5571 3.14553 14.0243 2.66202 14.3956 2.10811L14.3967 2.10633Z" />
</svg>
