<svg width="15" height="11" viewBox="0 0 15 11"  xmlns="http://www.w3.org/2000/svg">
<path d="M14.5773 2.40356C14.4954 2.1105 14.3394 1.84356 14.1244 1.62861C13.9093 1.41365 13.6425 1.25796 13.3498 1.17661C12.2509 0.882338 7.83324 0.882338 7.83324 0.882338C7.83324 0.882338 3.42399 0.875279 2.31364 1.17661C2.02136 1.25832 1.75507 1.41417 1.5405 1.62911C1.32593 1.84404 1.17034 2.11079 1.08877 2.40356C0.880093 3.53046 0.777314 4.67447 0.781787 5.82059C0.77975 6.96118 0.882513 8.09955 1.08877 9.22128C1.17061 9.51422 1.32624 9.78116 1.54074 9.99648C1.75523 10.2118 2.02138 10.3683 2.31364 10.4509C3.41254 10.7452 7.83324 10.7452 7.83324 10.7452C7.83324 10.7452 12.2399 10.7452 13.3498 10.4509C13.6425 10.3686 13.9092 10.2123 14.1241 9.99698C14.3391 9.78164 14.4952 9.51451 14.5773 9.22128C14.7794 8.10022 14.8781 6.96018 14.871 5.82059C14.8781 4.67349 14.7816 3.53169 14.5773 2.40356ZM6.42207 7.93257V3.69934L10.0993 5.82059L6.42207 7.93257Z" />
</svg>
