<svg width="40" height="45" viewBox="0 0 40 45" fill="none" xmlns="http://www.w3.org/2000/svg">
<path d="M18.75 45V34.5375C17.5 36.2925 15 38.4525 10.075 40.0725C10.075 40.0725 11.325 36.225 14.85 33.6375C11.6 34.2675 6.7 34.1775 0 31.5C0 31.5 6.175 28.3275 13.2 29.1825C9.225 27 4.25 22.68 0.425 13.7475C0.425 13.7475 11.675 16.515 17.275 25.065C12.2 14.04 20 0 20 0C26.075 12.3075 24.775 20.475 22.8 24.975C28.425 16.4925 39.575 13.7475 39.575 13.7475C35.75 22.68 30.775 27 26.8 29.1825C33.825 28.3275 40 31.5 40 31.5C33.3 34.1775 28.4 34.2675 25.15 33.6375C28.675 36.225 29.925 40.0725 29.925 40.0725C25 38.4525 22.5 36.2925 21.25 34.5375V45H18.75Z" fill="#6ECB9E"/>
</svg>
