<?xml version="1.0" encoding="utf-8"?><svg viewBox="0 0 70 65" xmlns="http://www.w3.org/2000/svg" xmlns:xlink="http://www.w3.org/1999/xlink"><style>:root>svg{display:none}:root>svg:target{display:block}</style><svg viewBox="0 0 12 12" id="facebook" xmlns="http://www.w3.org/2000/svg"><path d="M2.532.742c-1.113 0-2.01.896-2.01 2.009v6.985c0 1.113.897 2.01 2.01 2.01h3.786V7.442H5.18V5.895h1.138V4.572c0-1.04.672-1.994 2.22-1.994.627 0 1.09.06 1.09.06l-.036 1.446s-.473-.004-.989-.004c-.558 0-.648.257-.648.684v1.13h1.681l-.073 1.55H7.955v4.301h1.562c1.113 0 2.009-.896 2.009-2.009V2.751c0-1.113-.896-2.01-2.01-2.01H2.533z"/></svg><svg viewBox="0 0 11 9" id="footer-mail" xmlns="http://www.w3.org/2000/svg"><path d="M9.48.19c.84 0 1.52.681 1.52 1.52v5.645c0 .84-.68 1.52-1.52 1.52H1.52A1.52 1.52 0 010 7.355V1.711C0 .87.68.19 1.52.19h7.96zm.796 2.708l-4.602 2.53a.362.362 0 01-.312.019l-.036-.018L.724 2.897v4.458a.796.796 0 00.796.796h7.96a.796.796 0 00.796-.796V2.898zM9.48.915H1.52a.796.796 0 00-.796.796v.361L5.5 4.7l4.776-2.627V1.71A.796.796 0 009.48.915z"/></svg><svg fill="none" viewBox="0 0 15 16" id="guide-cannabis" xmlns="http://www.w3.org/2000/svg"><path d="M6.653 15.968v-3.713c-.443.623-1.33 1.39-3.078 1.964 0 0 .444-1.365 1.694-2.283-1.153.223-2.892.191-5.269-.759 0 0 2.191-1.125 4.684-.822C3.274 9.581 1.508 8.048.15 4.878c0 0 3.992.982 5.979 4.016C4.329 4.982 7.097 0 7.097 0c2.155 4.367 1.694 7.265.993 8.862 1.996-3.01 5.953-3.984 5.953-3.984-1.357 3.17-3.123 4.703-4.533 5.477 2.492-.303 4.684.822 4.684.822-2.378.95-4.117.982-5.27.759 1.251.918 1.694 2.283 1.694 2.283-1.747-.575-2.634-1.341-3.078-1.964v3.713h-.887z" fill="#FFB800"/></svg><svg viewBox="0 0 19 17" id="header-basket" xmlns="http://www.w3.org/2000/svg"><path d="M6.359 16.957a1.413 1.413 0 100-2.826 1.413 1.413 0 000 2.826zM16.25 16.957a1.413 1.413 0 100-2.826 1.413 1.413 0 000 2.826zM18.759 2.507a1.056 1.056 0 00-.82-.387H4.5L4.23.584A.707.707 0 003.533 0H.707a.707.707 0 100 1.413H2.94l2.016 11.428a.706.706 0 00.696.583h11.305a.707.707 0 000-1.413H6.245l-.25-1.413h10.672a1.063 1.063 0 001.04-.852l1.273-6.359a1.06 1.06 0 00-.221-.88z"/></svg><svg viewBox="0 0 17 14" id="header-heart" xmlns="http://www.w3.org/2000/svg"><path d="M12.262 0c-1.62 0-3.003 1.088-3.764 1.838C7.738 1.088 6.358 0 4.738 0 1.948 0 0 1.833 0 4.457c0 2.892 2.42 4.76 4.76 6.568 1.105.855 2.249 1.738 3.126 2.716a.796.796 0 00.59.259h.046a.795.795 0 00.59-.259c.879-.978 2.021-1.862 3.127-2.716C14.58 9.22 17 7.35 17 4.457 17 1.833 15.052 0 12.262 0z"/></svg><svg viewBox="0 0 40 45" id="header-logo" xmlns="http://www.w3.org/2000/svg"><path d="M18.75 45V34.538c-1.25 1.755-3.75 3.915-8.675 5.535 0 0 1.25-3.848 4.775-6.435-3.25.63-8.15.54-14.85-2.138 0 0 6.175-3.172 13.2-2.317C9.225 27 4.25 22.68.425 13.748c0 0 11.25 2.767 16.85 11.317C12.2 14.04 20 0 20 0c6.075 12.307 4.775 20.475 2.8 24.975 5.625-8.483 16.775-11.228 16.775-11.228C35.75 22.68 30.775 27 26.8 29.184 33.825 28.328 40 31.5 40 31.5c-6.7 2.678-11.6 2.767-14.85 2.138 3.525 2.587 4.775 6.434 4.775 6.434-4.925-1.62-7.425-3.78-8.675-5.535V45h-2.5z"/></svg><svg fill="none" viewBox="0 0 17 19" id="hero-arrow" xmlns="http://www.w3.org/2000/svg"><path d="M.773 19a.763.763 0 01-.547-.232.801.801 0 01-.226-.56V.792C0 .654.035.519.102.399A.783.783 0 01.38.11a.759.759 0 01.765-.012L16.6 8.806a.782.782 0 01.292.291.806.806 0 01-.292 1.096L1.145 18.902A.757.757 0 01.773 19z" fill="#fff"/></svg><svg viewBox="0 0 12 12" id="instagram" xmlns="http://www.w3.org/2000/svg"><path d="M5.569.63c-1.514 0-1.703.007-2.295.032-.595.03-.997.122-1.353.26-.371.14-.708.36-.986.643a2.7 2.7 0 00-.643.986c-.138.355-.23.758-.26 1.353C.006 4.497 0 4.684 0 6.199 0 7.713.007 7.9.032 8.494c.03.593.122.997.26 1.352.14.372.36.708.643.986a2.7 2.7 0 00.986.644c.356.136.76.23 1.353.26.593.026.78.031 2.295.031 1.514 0 1.702-.007 2.295-.032.593-.03.997-.123 1.352-.26.372-.14.708-.36.986-.643.285-.277.505-.614.644-.986.136-.355.23-.76.26-1.352.026-.593.032-.781.032-2.295 0-1.514-.008-1.703-.033-2.295-.029-.593-.123-1-.26-1.353a2.731 2.731 0 00-.643-.986 2.686 2.686 0 00-.986-.643c-.355-.138-.759-.23-1.352-.26C7.27.635 7.083.63 5.569.63zm0 1.002c1.487 0 1.664.008 2.252.033.542.025.837.116 1.033.192.242.09.461.232.642.417.184.18.326.398.415.64.076.196.167.491.192 1.033.025.588.033.766.033 2.252 0 1.486-.008 1.664-.035 2.252-.03.542-.12.837-.196 1.033a1.81 1.81 0 01-.417.642c-.181.184-.4.325-.642.415-.194.076-.493.167-1.037.192-.59.025-.765.033-2.256.033-1.49 0-1.664-.008-2.255-.035-.542-.029-.841-.12-1.037-.196a1.747 1.747 0 01-.64-.417 1.673 1.673 0 01-.417-.642c-.078-.194-.167-.493-.196-1.037-.02-.584-.03-.765-.03-2.248s.01-1.665.03-2.256c.029-.544.118-.842.196-1.037.096-.264.221-.446.417-.641a1.66 1.66 0 01.64-.418c.196-.076.488-.167 1.032-.194.59-.021.764-.029 2.253-.029l.023.016zm0 1.708a2.858 2.858 0 100 5.718 2.858 2.858 0 100-5.718zm0 4.716a1.855 1.855 0 01-1.857-1.857c0-1.026.83-1.856 1.857-1.856a1.855 1.855 0 110 3.713zm3.642-4.83a.67.67 0 11-1.141-.471.668.668 0 011.141.471z"/></svg><svg viewBox="0 0 13 13" id="linkedin" xmlns="http://www.w3.org/2000/svg"><path d="M3.083 12.736l-.03-7.923-2.628.01.03 7.922 2.628-.01zm-1.347-9c.917-.003 1.485-.614 1.482-1.374-.02-.777-.575-1.367-1.475-1.364-.899.004-1.485.597-1.482 1.375.003.76.576 1.366 1.458 1.363h.017zm2.802 8.994l2.628-.01-.016-4.424c0-.236.015-.473.084-.642.188-.474.62-.966 1.345-.968.951-.004 1.335.721 1.338 1.786l.016 4.239 2.628-.01-.016-4.543c-.01-2.433-1.31-3.56-3.04-3.554-1.418.005-2.037.801-2.381 1.343h.017l-.004-1.149-2.628.01c.037.743.029 7.922.029 7.922z"/></svg><svg fill="none" viewBox="0 0 46 65" id="service-1" xmlns="http://www.w3.org/2000/svg"><path d="M46 22.755a22.552 22.552 0 00-2.964-11.177 22.864 22.864 0 00-8.134-8.295A23.188 23.188 0 0023.696.01a23.21 23.21 0 00-11.385 2.596 22.909 22.909 0 00-8.627 7.793 22.533 22.533 0 00-1.36 22.313 22.82 22.82 0 007.619 8.761L0 58.501l7.413.302L11.382 65 22.77 45.49c.079 0 .151.012.23.012.079 0 .151-.01.23-.013L34.618 65l4.048-6.064L46 58.501l-9.943-17.028a22.798 22.798 0 007.308-8.145A22.515 22.515 0 0046 22.755zm-39.429 0c0-3.213.964-6.354 2.77-9.026a16.39 16.39 0 017.372-5.985 16.598 16.598 0 019.492-.924 16.486 16.486 0 018.412 4.446 16.195 16.195 0 014.496 8.32 16.081 16.081 0 01-.935 9.387 16.288 16.288 0 01-6.05 7.292A16.559 16.559 0 0123 39.003a16.522 16.522 0 01-11.617-4.759 16.158 16.158 0 01-4.812-11.489z" fill="#000"/></svg><svg fill="none" viewBox="0 0 70 49" id="service-2" xmlns="http://www.w3.org/2000/svg"><path d="M60 18.725V0H42.353v7H52.94v9.275L40.66 31.5H28.235V14H0v24.5h7.059c0 5.81 4.73 10.5 10.588 10.5 5.859 0 10.588-4.69 10.588-10.5h15.812L60 18.725zM17.647 42c-1.941 0-3.53-1.575-3.53-3.5h7.06c0 1.925-1.589 3.5-3.53 3.5z" fill="#000"/><path d="M11 4h17.353v6.923H11V4zm48.588 24.23c-5.76 0-10.412 4.64-10.412 10.385C49.176 44.361 53.828 49 59.588 49 65.35 49 70 44.361 70 38.615c0-5.746-4.65-10.384-10.412-10.384zm0 13.847a3.476 3.476 0 01-3.47-3.462 3.476 3.476 0 013.47-3.461 3.476 3.476 0 013.47 3.461 3.476 3.476 0 01-3.47 3.462z" fill="#000"/></svg><svg fill="none" viewBox="0 0 52 55" id="service-3" xmlns="http://www.w3.org/2000/svg"><path d="M52 2.75v5.5a19.297 19.297 0 01-5.611 13.612A19.111 19.111 0 0132.842 27.5h-2.737v2.75H43.79V49.5a5.514 5.514 0 01-1.603 3.89 5.46 5.46 0 01-3.87 1.61H16.42a5.46 5.46 0 01-3.87-1.61 5.514 5.514 0 01-1.604-3.89V30.25h13.685V22a19.297 19.297 0 015.61-13.612A19.112 19.112 0 0143.79 2.75H52zM9.579 0a20.42 20.42 0 019.438 2.304 20.53 20.53 0 017.322 6.41A21.94 21.94 0 0021.895 22v2.75h-1.369a20.477 20.477 0 01-14.514-6.04A20.676 20.676 0 010 4.124V0h9.579z" fill="#000"/></svg><svg fill="none" viewBox="0 0 60 60" id="service-4" xmlns="http://www.w3.org/2000/svg"><path d="M54 0H6C2.7 0 0 2.7 0 6v54l12-12h42c3.3 0 6-2.7 6-6V6c0-3.3-2.7-6-6-6zM34.71 28.71L30 39l-4.71-10.29L15 24l10.29-4.71L30 9l4.71 10.29L45 24l-10.29 4.71z" fill="#000"/></svg><svg viewBox="0 0 15 12" id="twitter" xmlns="http://www.w3.org/2000/svg"><path d="M14.397 2.106a5.55 5.55 0 01-1.589.435 2.768 2.768 0 001.216-1.528 5.531 5.531 0 01-1.756.67 2.77 2.77 0 00-4.543.75 2.755 2.755 0 00-.172 1.768A7.872 7.872 0 011.85 1.317a2.754 2.754 0 00-.048 2.69c.215.4.525.742.904.995a2.765 2.765 0 01-1.253-.346v.036a2.769 2.769 0 002.22 2.706c-.408.11-.835.127-1.25.048a2.762 2.762 0 002.585 1.916A5.56 5.56 0 01.91 10.505a7.838 7.838 0 004.24 1.24c5.09 0 7.873-4.205 7.873-7.852a7.86 7.86 0 00-.008-.357 5.617 5.617 0 001.38-1.428v-.002z"/></svg><svg viewBox="0 0 15 11" id="youtube" xmlns="http://www.w3.org/2000/svg"><path d="M14.577 2.404a1.77 1.77 0 00-1.227-1.227C12.25.882 7.833.882 7.833.882s-4.409-.007-5.52.295A1.763 1.763 0 001.09 2.404 18.373 18.373 0 00.782 5.82c-.002 1.14.1 2.279.307 3.4a1.775 1.775 0 001.225 1.23c1.099.294 5.52.294 5.52.294s4.406 0 5.516-.294a1.771 1.771 0 001.227-1.23c.202-1.12.301-2.26.294-3.4a18.512 18.512 0 00-.294-3.417zM6.422 7.933V3.699L10.1 5.821 6.422 7.933z"/></svg></svg>