<?xml version="1.0" encoding="utf-8"?><svg viewBox="0 0 40 45" xmlns="http://www.w3.org/2000/svg" xmlns:xlink="http://www.w3.org/1999/xlink"><style>:root>svg{display:none}:root>svg:target{display:block}</style><svg viewBox="0 0 19 17" id="header-basket" xmlns="http://www.w3.org/2000/svg"><path d="M6.359 16.957a1.413 1.413 0 100-2.826 1.413 1.413 0 000 2.826zM16.25 16.957a1.413 1.413 0 100-2.826 1.413 1.413 0 000 2.826zM18.759 2.507a1.056 1.056 0 00-.82-.387H4.5L4.23.584A.707.707 0 003.533 0H.707a.707.707 0 100 1.413H2.94l2.016 11.428a.706.706 0 00.696.583h11.305a.707.707 0 000-1.413H6.245l-.25-1.413h10.672a1.063 1.063 0 001.04-.852l1.273-6.359a1.06 1.06 0 00-.221-.88z"/></svg><svg viewBox="0 0 17 14" id="header-heart" xmlns="http://www.w3.org/2000/svg"><path d="M12.262 0c-1.62 0-3.003 1.088-3.764 1.838C7.738 1.088 6.358 0 4.738 0 1.948 0 0 1.833 0 4.457c0 2.892 2.42 4.76 4.76 6.568 1.105.855 2.249 1.738 3.126 2.716a.796.796 0 00.59.259h.046a.795.795 0 00.59-.259c.879-.978 2.021-1.862 3.127-2.716C14.58 9.22 17 7.35 17 4.457 17 1.833 15.052 0 12.262 0z"/></svg><svg fill="none" viewBox="0 0 40 45" id="header-logo" xmlns="http://www.w3.org/2000/svg"><path d="M18.75 45V34.538c-1.25 1.755-3.75 3.915-8.675 5.535 0 0 1.25-3.848 4.775-6.435-3.25.63-8.15.54-14.85-2.138 0 0 6.175-3.172 13.2-2.317C9.225 27 4.25 22.68.425 13.748c0 0 11.25 2.767 16.85 11.317C12.2 14.04 20 0 20 0c6.075 12.307 4.775 20.475 2.8 24.975 5.625-8.483 16.775-11.228 16.775-11.228C35.75 22.68 30.775 27 26.8 29.184 33.825 28.328 40 31.5 40 31.5c-6.7 2.678-11.6 2.767-14.85 2.138 3.525 2.587 4.775 6.434 4.775 6.434-4.925-1.62-7.425-3.78-8.675-5.535V45h-2.5z" fill="#6ECB9E"/></svg></svg>