<?xml version="1.0" encoding="utf-8"?><svg viewBox="0 0 70 65" xmlns="http://www.w3.org/2000/svg" xmlns:xlink="http://www.w3.org/1999/xlink"><style>:root>svg{display:none}:root>svg:target{display:block}</style><svg viewBox="0 0 19 17" id="header-basket" xmlns="http://www.w3.org/2000/svg"><path d="M6.359 16.957a1.413 1.413 0 100-2.826 1.413 1.413 0 000 2.826zM16.25 16.957a1.413 1.413 0 100-2.826 1.413 1.413 0 000 2.826zM18.759 2.507a1.056 1.056 0 00-.82-.387H4.5L4.23.584A.707.707 0 003.533 0H.707a.707.707 0 100 1.413H2.94l2.016 11.428a.706.706 0 00.696.583h11.305a.707.707 0 000-1.413H6.245l-.25-1.413h10.672a1.063 1.063 0 001.04-.852l1.273-6.359a1.06 1.06 0 00-.221-.88z"/></svg><svg viewBox="0 0 17 14" id="header-heart" xmlns="http://www.w3.org/2000/svg"><path d="M12.262 0c-1.62 0-3.003 1.088-3.764 1.838C7.738 1.088 6.358 0 4.738 0 1.948 0 0 1.833 0 4.457c0 2.892 2.42 4.76 4.76 6.568 1.105.855 2.249 1.738 3.126 2.716a.796.796 0 00.59.259h.046a.795.795 0 00.59-.259c.879-.978 2.021-1.862 3.127-2.716C14.58 9.22 17 7.35 17 4.457 17 1.833 15.052 0 12.262 0z"/></svg><svg fill="none" viewBox="0 0 40 45" id="header-logo" xmlns="http://www.w3.org/2000/svg"><path d="M18.75 45V34.538c-1.25 1.755-3.75 3.915-8.675 5.535 0 0 1.25-3.848 4.775-6.435-3.25.63-8.15.54-14.85-2.138 0 0 6.175-3.172 13.2-2.317C9.225 27 4.25 22.68.425 13.748c0 0 11.25 2.767 16.85 11.317C12.2 14.04 20 0 20 0c6.075 12.307 4.775 20.475 2.8 24.975 5.625-8.483 16.775-11.228 16.775-11.228C35.75 22.68 30.775 27 26.8 29.184 33.825 28.328 40 31.5 40 31.5c-6.7 2.678-11.6 2.767-14.85 2.138 3.525 2.587 4.775 6.434 4.775 6.434-4.925-1.62-7.425-3.78-8.675-5.535V45h-2.5z" fill="#6ECB9E"/></svg><svg fill="none" viewBox="0 0 17 19" id="hero-arrow" xmlns="http://www.w3.org/2000/svg"><path d="M.773 19a.763.763 0 01-.547-.232.801.801 0 01-.226-.56V.792C0 .654.035.519.102.399A.783.783 0 01.38.11a.759.759 0 01.765-.012L16.6 8.806a.782.782 0 01.292.291.806.806 0 01-.292 1.096L1.145 18.902A.757.757 0 01.773 19z" fill="#fff"/></svg><svg fill="none" viewBox="0 0 46 65" id="service-1" xmlns="http://www.w3.org/2000/svg"><path d="M46 22.755a22.552 22.552 0 00-2.964-11.177 22.864 22.864 0 00-8.134-8.295A23.188 23.188 0 0023.696.01a23.21 23.21 0 00-11.385 2.596 22.909 22.909 0 00-8.627 7.793 22.533 22.533 0 00-1.36 22.313 22.82 22.82 0 007.619 8.761L0 58.501l7.413.302L11.382 65 22.77 45.49c.079 0 .151.012.23.012.079 0 .151-.01.23-.013L34.618 65l4.048-6.064L46 58.501l-9.943-17.028a22.798 22.798 0 007.308-8.145A22.515 22.515 0 0046 22.755zm-39.429 0c0-3.213.964-6.354 2.77-9.026a16.39 16.39 0 017.372-5.985 16.598 16.598 0 019.492-.924 16.486 16.486 0 018.412 4.446 16.195 16.195 0 014.496 8.32 16.081 16.081 0 01-.935 9.387 16.288 16.288 0 01-6.05 7.292A16.559 16.559 0 0123 39.003a16.522 16.522 0 01-11.617-4.759 16.158 16.158 0 01-4.812-11.489z" fill="#000"/></svg><svg fill="none" viewBox="0 0 70 49" id="service-2" xmlns="http://www.w3.org/2000/svg"><path d="M60 18.725V0H42.353v7H52.94v9.275L40.66 31.5H28.235V14H0v24.5h7.059c0 5.81 4.73 10.5 10.588 10.5 5.859 0 10.588-4.69 10.588-10.5h15.812L60 18.725zM17.647 42c-1.941 0-3.53-1.575-3.53-3.5h7.06c0 1.925-1.589 3.5-3.53 3.5z" fill="#000"/><path d="M11 4h17.353v6.923H11V4zm48.588 24.23c-5.76 0-10.412 4.64-10.412 10.385C49.176 44.361 53.828 49 59.588 49 65.35 49 70 44.361 70 38.615c0-5.746-4.65-10.384-10.412-10.384zm0 13.847a3.476 3.476 0 01-3.47-3.462 3.476 3.476 0 013.47-3.461 3.476 3.476 0 013.47 3.461 3.476 3.476 0 01-3.47 3.462z" fill="#000"/></svg><svg fill="none" viewBox="0 0 52 55" id="service-3" xmlns="http://www.w3.org/2000/svg"><path d="M52 2.75v5.5a19.297 19.297 0 01-5.611 13.612A19.111 19.111 0 0132.842 27.5h-2.737v2.75H43.79V49.5a5.514 5.514 0 01-1.603 3.89 5.46 5.46 0 01-3.87 1.61H16.42a5.46 5.46 0 01-3.87-1.61 5.514 5.514 0 01-1.604-3.89V30.25h13.685V22a19.297 19.297 0 015.61-13.612A19.112 19.112 0 0143.79 2.75H52zM9.579 0a20.42 20.42 0 019.438 2.304 20.53 20.53 0 017.322 6.41A21.94 21.94 0 0021.895 22v2.75h-1.369a20.477 20.477 0 01-14.514-6.04A20.676 20.676 0 010 4.124V0h9.579z" fill="#000"/></svg><svg fill="none" viewBox="0 0 60 60" id="service-4" xmlns="http://www.w3.org/2000/svg"><path d="M54 0H6C2.7 0 0 2.7 0 6v54l12-12h42c3.3 0 6-2.7 6-6V6c0-3.3-2.7-6-6-6zM34.71 28.71L30 39l-4.71-10.29L15 24l10.29-4.71L30 9l4.71 10.29L45 24l-10.29 4.71z" fill="#000"/></svg></svg>